<svg width="111" height="23" viewBox="0 0 111 23" fill="none" xmlns="http://www.w3.org/2000/svg">
<path fill-rule="evenodd" clip-rule="evenodd" d="M11.3112 22.6224C17.5582 22.6224 22.6224 17.5582 22.6224 11.3112C22.6224 5.06419 17.5582 0 11.3112 0C5.06419 0 0 5.06419 0 11.3112C0 17.5582 5.06419 22.6224 11.3112 22.6224ZM19.0595 6.8185C17.9122 4.84969 16.0174 3.31569 13.6425 2.67932C11.2675 2.04294 8.85957 2.42405 6.88155 3.55542C4.88247 4.69885 3.32247 6.60861 2.67932 9.00888C1.3998 13.7841 4.23364 18.6925 9.00889 19.972C10.2639 20.3083 10.6469 19.6609 11.2335 18.6692C11.71 17.8638 12.3208 16.8312 13.6425 15.9142C15.0441 14.9416 16.392 14.9454 17.4925 14.9485C18.7072 14.952 19.6204 14.9546 19.972 13.6425C20.6152 11.2422 20.2191 8.80828 19.0595 6.8185Z" fill="#5A58F2"/>
<path d="M30.6224 16.1649H33.035V11.3207C33.035 9.53496 33.9089 8.49013 35.4286 8.49013H36.3215V6.1345H35.5996C34.3458 6.1345 33.4719 6.85639 33.035 7.78724H32.959L32.769 6.28648H30.6224V16.1649Z" fill="#fff"/>
<path d="M42.112 16.3359C44.6576 16.3359 46.2723 14.8731 46.5383 13.0874H44.0497C43.8597 13.6953 43.2518 14.2272 42.112 14.2272C40.6492 14.2272 39.9653 13.2774 39.9463 11.9286H46.6713V10.9407C46.6713 8.24317 45.0185 6.1155 42.074 6.1155C38.9015 6.1155 37.3437 8.43314 37.3437 11.2447C37.3437 14.0942 39.0535 16.3359 42.112 16.3359ZM39.9653 10.2378C40.0223 9.11703 40.6492 8.24317 42.074 8.24317C43.4038 8.24317 44.0307 9.11703 44.0687 10.2378H39.9653Z" fill="#fff"/>
<path d="M52.1744 16.3359C54.5681 16.3359 56.3728 15.2341 56.3728 13.2584C56.3728 11.3017 55.081 10.5798 53.4852 10.2568L51.6805 9.9339C51.0536 9.80092 50.6737 9.53496 50.6737 9.04104C50.6737 8.50912 51.2246 8.14818 52.0795 8.14818C53.1243 8.14818 53.6372 8.71809 53.6372 9.40198H56.1448C56.1448 7.52128 54.5871 6.1155 52.1175 6.1155C49.6099 6.1155 48.1851 7.4073 48.1851 9.02204C48.1851 10.8458 49.4769 11.7196 51.0726 12.0236L52.6684 12.3275C53.4472 12.4795 53.8082 12.7834 53.8082 13.2774C53.8082 13.7903 53.2953 14.1892 52.1744 14.1892C51.0156 14.1892 50.4267 13.6003 50.4267 12.8404H47.8811C47.9381 14.9111 49.3059 16.3359 52.1744 16.3359Z" fill="#fff"/>
<path d="M58.1346 16.1649H60.6802V10.7128C60.6802 9.288 61.5731 8.43314 62.7699 8.43314C64.0427 8.43314 64.6126 9.17402 64.6126 10.4088V16.1649H67.1582V9.68694C67.1582 7.48329 65.7334 6.1155 63.5487 6.1155C62.2 6.1155 61.3071 6.66642 60.7562 7.4073H60.6802V2.10714H58.1346V16.1649Z" fill="#fff"/>
<path d="M72.2093 16.3359C73.4821 16.3359 74.4129 15.861 74.9638 15.1391H75.0398L75.2298 16.1649H77.4904V9.62995C77.4904 7.61627 75.9517 6.1155 73.2921 6.1155C70.5945 6.1155 69.1888 7.61626 69.1888 9.47797H71.5824C71.5824 8.77508 72.1713 8.20517 73.2351 8.20517C74.4509 8.20517 74.9449 8.85107 74.9449 9.64894V10.5038C74.4889 10.3518 73.5771 10.1999 72.7412 10.1999C69.9866 10.1999 68.7518 11.4727 68.7518 13.2584C68.7518 15.0061 70.0056 16.3359 72.2093 16.3359ZM72.8172 14.3222C71.7914 14.3222 71.2784 13.8283 71.2784 13.1444C71.2784 12.4415 71.8673 11.9666 72.9882 11.9666C73.6531 11.9666 74.299 12.0426 74.9449 12.2895V12.4985C74.9449 13.4863 74.147 14.3222 72.8172 14.3222Z" fill="#fff"/>
<path d="M79.6175 20.5152H82.1631V15.1011H82.2391C82.733 15.747 83.5499 16.3359 84.9747 16.3359C87.5393 16.3359 89.021 14.1702 89.021 11.2447C89.021 8.20517 87.4633 6.1155 84.9747 6.1155C83.5499 6.1155 82.733 6.70441 82.2391 7.35031H82.1631L81.8972 6.28648H79.6175V20.5152ZM84.2528 14.0942C82.638 14.0942 82.0681 12.7834 82.0681 11.2447C82.0681 9.68694 82.676 8.35715 84.2528 8.35715C85.8675 8.35715 86.4374 9.68694 86.4374 11.2447C86.4374 12.7834 85.8865 14.0942 84.2528 14.0942Z" fill="#fff"/>
<path d="M95.003 16.3359C97.5486 16.3359 99.1633 14.8731 99.4293 13.0874H96.9407C96.7507 13.6953 96.1428 14.2272 95.003 14.2272C93.5402 14.2272 92.8563 13.2774 92.8373 11.9286H99.5623V10.9407C99.5623 8.24317 97.9095 6.1155 94.965 6.1155C91.7925 6.1155 90.2347 8.43314 90.2347 11.2447C90.2347 14.0942 91.9445 16.3359 95.003 16.3359ZM92.8563 10.2378C92.9133 9.11703 93.5402 8.24317 94.965 8.24317C96.2948 8.24317 96.9217 9.11703 96.9597 10.2378H92.8563Z" fill="#fff"/>
<path d="M104.837 16.3359C106.243 16.3359 107.06 15.747 107.554 15.1011H107.63L107.896 16.1649H110.176V2.10714H107.63V7.35031H107.554C107.06 6.70441 106.243 6.1155 104.837 6.1155C102.254 6.1155 100.772 8.28116 100.772 11.2257C100.772 14.2462 102.311 16.3359 104.837 16.3359ZM105.54 14.0942C103.945 14.0942 103.356 12.7644 103.356 11.2257C103.356 9.66794 103.907 8.35715 105.54 8.35715C107.155 8.35715 107.725 9.68694 107.725 11.2257C107.725 12.7644 107.136 14.0942 105.54 14.0942Z" fill="#fff"/>
</svg>
